<svg width="132" height="104" viewBox="0 0 132 104" fill="none" xmlns="http://www.w3.org/2000/svg">
<path d="M50.678 12.297L50.6778 12.2968C50.5272 12.1253 50.3846 11.9501 50.3176 11.8062C50.3007 11.77 50.2635 11.6848 50.2588 11.5756C50.2532 11.4429 50.3028 11.2097 50.5408 11.0882C50.7094 11.0021 50.8671 11.0357 50.9082 11.0449C50.9714 11.0589 51.0253 11.0814 51.0616 11.0981C51.1986 11.1611 51.3762 11.2816 51.5659 11.4223C51.7669 11.5713 52.0161 11.7692 52.3073 12.012L52.3075 12.0122C53.1188 12.6895 53.9376 13.0956 55.7903 13.3336C57.6778 13.5761 60.58 13.6365 65.5321 13.6365C69.3679 13.6365 72.3277 13.5438 74.4364 13.3585C75.4917 13.2658 76.3216 13.1509 76.9363 13.0164C77.5757 12.8764 77.9039 12.7306 78.0307 12.6254C78.3136 12.3908 78.5608 12.1994 78.7645 12.0782C78.8646 12.0185 78.9832 11.958 79.1096 11.9262C79.234 11.8949 79.4444 11.8733 79.6436 12.0057C79.8399 12.136 79.9029 12.335 79.9245 12.4574C79.9469 12.5841 79.9415 12.7163 79.9292 12.8335C79.9042 13.0712 79.8346 13.3788 79.7406 13.7389L79.7405 13.7392C79.6611 14.0422 79.655 14.247 79.6909 14.3994C79.724 14.5398 79.8036 14.6826 79.993 14.8435C80.4107 15.1985 81.2449 15.5502 82.7881 16.0122C83.9918 16.3727 84.8881 16.6998 85.479 16.9709C85.7701 17.1045 86.0108 17.2351 86.1798 17.3616C86.261 17.4224 86.357 17.505 86.4282 17.6112C86.4978 17.715 86.6029 17.9391 86.4876 18.1937C86.3866 18.4164 86.1848 18.4985 86.0936 18.5282C85.9839 18.5638 85.8659 18.5776 85.759 18.5828C85.5406 18.5935 85.2587 18.5728 84.9277 18.5275C84.2592 18.436 83.3089 18.2321 82.0933 17.8969L82.0932 17.8968C81.0892 17.6197 80.322 17.4558 79.718 17.4188C79.1201 17.3822 78.7311 17.4732 78.444 17.6583C78.1543 17.8451 77.8972 18.1735 77.6573 18.7564C77.4163 19.3422 77.2122 20.1365 76.9997 21.1983L76.9997 21.1984L76.5211 23.5882L80.8081 23.0573C80.8081 23.0573 80.8081 23.0573 80.8082 23.0573C90.0538 21.911 95.8255 20.5273 100.378 18.3976L104.987 16.2418L105.514 17.0827L102.749 19.3306L102.434 18.9426L102.749 19.3306C99.6524 21.8477 94.653 23.8054 88.3139 25.1376C81.9617 26.4726 74.2123 27.19 65.569 27.19C56.9256 27.19 49.1762 26.4726 42.824 25.1376C36.4849 23.8054 31.4855 21.8477 28.3889 19.3306L28.3889 19.3306L25.6241 17.0827L26.1531 16.2427L30.8662 18.4694C33.3973 19.6651 39.3581 21.2895 44.096 22.0571C44.5161 22.1252 44.9204 22.1908 45.3094 22.254C47.6341 22.6316 49.4141 22.9206 50.7747 23.1059C52.3823 23.3248 53.3365 23.3876 53.8915 23.3061C54.1616 23.2664 54.2705 23.2008 54.3139 23.1612C54.3447 23.1331 54.3828 23.0828 54.3973 22.9368C54.4132 22.7769 54.3953 22.5533 54.341 22.231C54.3029 22.0044 54.2519 21.7554 54.1934 21.4696C54.1691 21.3509 54.1435 21.2258 54.117 21.0935L54.117 21.0934C53.9102 20.0598 53.7092 19.2875 53.4705 18.7185C53.2334 18.1532 52.978 17.8345 52.6889 17.6528C52.4009 17.4718 52.01 17.3831 51.4119 17.4206C50.8084 17.4585 50.0431 17.6215 49.0446 17.8969C47.8385 18.2297 46.892 18.4325 46.2231 18.5243C45.8916 18.5698 45.6093 18.5907 45.3899 18.581C45.2822 18.5762 45.1655 18.5631 45.0571 18.5299C44.9676 18.5024 44.7736 18.4285 44.6642 18.2232C44.5324 17.9759 44.6217 17.7441 44.6941 17.6278C44.7639 17.5157 44.8608 17.4304 44.94 17.3696C45.1058 17.2425 45.3429 17.1126 45.6285 16.9806C46.2089 16.7123 47.0938 16.3886 48.2862 16.0316L50.678 12.297ZM50.678 12.297C51.1517 12.8358 51.4282 13.2672 51.5491 13.6154M50.678 12.297L51.5491 13.6154M51.429 11.6368C51.4291 11.6369 51.4292 11.6369 51.4292 11.637L51.24 11.8032C51.435 11.9464 51.686 12.1449 51.9871 12.396L51.429 11.6368ZM51.429 11.6368C51.2942 11.4832 51.241 11.4076 51.2276 11.3886C51.2246 11.3843 51.2236 11.3829 51.2242 11.3842C51.2252 11.3863 51.2541 11.4442 51.2579 11.5328C51.2605 11.5936 51.2491 11.6858 51.2024 11.7758L51.429 11.6368ZM51.6669 12.7801C51.3844 12.5445 51.1509 12.3595 50.9704 12.2256C50.9274 12.1938 50.8889 12.1659 50.8546 12.1417C50.8546 12.1417 50.8546 12.1417 50.8545 12.1416C50.7369 12.0586 50.6696 12.0186 50.6442 12.0068C50.6494 12.009 50.666 12.0155 50.6912 12.0211L50.6923 12.0213C50.7108 12.0255 50.8444 12.056 50.9955 11.9789C51.0116 11.9706 51.0267 11.9619 51.041 11.9527C51.0451 11.9574 51.0493 11.9621 51.0535 11.9669C51.3038 12.2516 51.5114 12.5186 51.6748 12.7701L51.6667 12.7799C51.6667 12.7799 51.6668 12.78 51.6669 12.7801ZM51.6669 12.7801C51.6771 12.7886 51.6874 12.7971 51.6976 12.8056C51.6902 12.7939 51.6826 12.7821 51.675 12.7704L51.6669 12.7801ZM73.514 16.6606L73.5139 16.6606C73.3818 16.6099 73.0586 16.5475 72.5282 16.4902C72.018 16.435 71.3669 16.3892 70.6179 16.3531C69.121 16.281 67.2544 16.2487 65.3868 16.2552C63.5193 16.2617 61.6574 16.3071 60.1698 16.3897C59.4254 16.431 58.7802 16.4814 58.2773 16.54C57.7524 16.6012 57.4416 16.6656 57.3221 16.7145L73.514 16.6606ZM73.514 16.6606C73.7955 16.7686 73.9214 16.8522 73.9826 16.9211M73.514 16.6606L73.9826 16.9211M73.2753 47.6792L73.2754 47.6791C73.6826 45.878 74.0526 44.1693 74.3206 42.8679C74.4547 42.2169 74.5628 41.67 74.6371 41.2652C74.6709 41.0812 74.6973 40.9289 74.716 40.8108C74.6545 40.7848 74.5768 40.7548 74.4812 40.7215C74.1196 40.5953 73.5811 40.447 72.8981 40.2868C71.5366 39.9675 69.6497 39.6123 67.5683 39.2997C63.3913 38.6732 59.0836 37.9824 58.0033 37.7649M73.2753 47.6792L55.7169 37.3346C55.4699 37.5814 56.1334 41.5089 57.1924 46.0618M73.2753 47.6792L71.8815 53.8486L65.6992 53.8452L59.5148 53.8417L57.6794 45.9486L57.1924 46.0618M73.2753 47.6792L57.1924 46.0618M58.0033 37.7649L58.102 37.2747L58.0036 37.7649C58.0035 37.7649 58.0034 37.7649 58.0033 37.7649ZM58.0033 37.7649C57.5034 37.6645 57.0063 37.622 56.6154 37.6318C56.4264 37.6365 56.2747 37.6532 56.1654 37.6763M56.1654 37.6763C56.1651 37.6507 56.1653 37.6273 56.1658 37.6059C56.1665 37.5792 56.1677 37.5584 56.1691 37.5427C56.1693 37.5404 56.1695 37.5383 56.1697 37.5363C56.1701 37.5316 56.1706 37.5279 56.171 37.5249C56.1716 37.5206 56.1719 37.5187 56.1719 37.5187L56.1715 37.5209L56.1698 37.5272C56.1683 37.5326 56.1654 37.5422 56.1603 37.555C56.1521 37.5754 56.1275 37.6311 56.0703 37.6883C56.0535 37.705 56.0424 37.7118 56.0426 37.7122C56.0429 37.7128 56.072 37.6971 56.1528 37.6791C56.157 37.6782 56.1612 37.6772 56.1654 37.6763ZM56.1654 37.6763C56.1666 37.7842 56.1749 37.9302 56.1922 38.1158C56.2345 38.5717 56.325 39.2139 56.4579 40.0001C56.7232 41.5695 57.1516 43.6793 57.6794 45.9485L57.1924 46.0618M62.4894 78.2953L62.6274 83.3431C62.672 84.9664 62.6744 86.1563 62.6385 86.9109C62.621 87.2791 62.5931 87.5781 62.5461 87.7765C62.5337 87.8287 62.5169 87.8876 62.4927 87.9454C62.4723 87.9942 62.4279 88.0889 62.3385 88.171C62.2272 88.2733 62.0392 88.3554 61.8245 88.292C61.6596 88.2433 61.5662 88.1309 61.5304 88.0837C61.4519 87.9802 61.4033 87.852 61.3717 87.7583C61.3351 87.6497 61.2994 87.5181 61.2642 87.3687C61.1937 87.0687 61.1177 86.6652 61.0366 86.1638C60.8742 85.1593 60.6867 83.7325 60.4797 81.8942C60.2463 79.8221 60.011 78.5666 59.6798 77.7869C59.5189 77.408 59.3449 77.1659 59.1573 77.0004C58.9715 76.8365 58.7445 76.723 58.4383 76.6429C58.4382 76.6429 58.4382 76.6429 58.4382 76.6429L58.5647 76.1591L62.4894 78.2953ZM62.4894 78.2953L65.8828 78.0474L69.237 77.8016L69.3549 80.7914C69.3848 81.5543 69.4115 82.1396 69.44 82.5487C69.4541 82.7523 69.4692 82.921 69.4866 83.0497C69.4952 83.1134 69.5056 83.1766 69.519 83.2334C69.5279 83.2715 69.5523 83.3744 69.6163 83.4695C69.6473 83.5154 69.7387 83.6375 69.9151 83.6848C70.1261 83.7414 70.2947 83.6523 70.3799 83.5809C70.4547 83.5182 70.4955 83.4484 70.5127 83.4168C70.5336 83.3784 70.5485 83.3418 70.5587 83.3139C70.596 83.212 70.6257 83.0746 70.6518 82.9343C70.7069 82.6377 70.7718 82.1798 70.8506 81.5801L70.8507 81.5799C71.0481 80.0732 71.4599 78.2599 71.7472 77.5612L71.7474 77.5607C71.9201 77.1396 72.0471 76.6539 72.1159 76.2063C72.1823 75.7736 72.2041 75.3155 72.1214 74.9714C72.1223 74.9751 72.1223 74.9731 72.1218 74.9638C72.1208 74.9416 72.1179 74.8772 72.1227 74.7503C72.1287 74.591 72.1445 74.3765 72.1703 74.1099C72.2216 73.5778 72.3103 72.8602 72.4298 72.0065C72.6687 70.3004 73.0284 68.0671 73.4515 65.7202C74.134 61.9322 74.5836 59.8111 75.1177 58.4881C75.3794 57.8397 75.6531 57.406 75.9692 57.0702C76.2867 56.7328 76.6694 56.4702 77.1857 56.1899C77.8492 55.8298 78.5147 55.4993 79.0501 55.2575C79.2057 55.1873 79.3486 55.1253 79.476 55.0727C79.4277 55.3155 79.3547 55.6216 79.2574 55.9843C78.9736 57.0418 78.5012 58.5163 77.9076 60.1501L78.3775 60.3208L62.4894 78.2953ZM69.8591 81.45C69.8591 81.45 69.8592 81.4499 69.8592 81.4498L69.8825 81.4529L69.8591 81.45ZM69.8591 81.45C69.7799 82.0529 69.7182 82.485 69.6686 82.7515C69.6564 82.8171 69.6457 82.8688 69.6363 82.9082C69.6317 82.9277 69.6278 82.9427 69.6246 82.9538C69.6214 82.9653 69.6197 82.97 69.6198 82.9698C69.6199 82.9694 69.6209 82.9666 69.623 82.9619C69.6249 82.9574 69.6287 82.9491 69.6346 82.9384C69.6417 82.9254 69.6725 82.869 69.7377 82.8144C69.7828 82.7766 69.8577 82.7306 69.9538 82.7112C69.9294 82.4224 69.9067 82.0045 69.8826 81.4531L69.8591 81.45ZM51.5491 13.6154C51.6623 13.9412 51.6348 14.1746 51.5143 14.3834M51.5491 13.6154L51.5143 14.3834M51.5143 14.3834C51.3777 14.6199 51.0851 14.8872 50.5372 15.1758M51.5143 14.3834L50.5372 15.1758M50.5372 15.1758C49.9958 15.4609 49.2541 15.7417 48.2863 16.0316L50.5372 15.1758ZM73.9826 16.9211C74.0217 16.9652 74.0654 17.0358 74.058 17.232M73.9826 16.9211L74.058 17.232M74.058 17.232C74.0499 17.4488 73.98 17.7686 73.8143 18.257M74.058 17.232L73.8143 18.257M73.8143 18.257C73.651 18.7387 73.4075 19.3486 73.0772 20.1349M73.8143 18.257L73.0772 20.1349M73.0772 20.1349L71.688 23.4412M73.0772 20.1349L71.688 23.4412M71.688 23.4412H65.569H59.4499L58.0543 20.1202C58.0543 20.1201 58.0543 20.1201 58.0543 20.1201C57.5076 18.819 57.2277 17.9396 57.1626 17.3665C57.1304 17.0824 57.1575 16.9235 57.1913 16.8407C57.2162 16.7795 57.2488 16.7445 57.3218 16.7146L71.688 23.4412ZM12.7349 11.0962L19.4445 0.501411L65.7369 0.738496L112.033 0.975608L121.553 16.1119C124.208 20.3328 126.551 24.2768 128.188 27.2295C129.007 28.7071 129.646 29.9293 130.057 30.811C130.259 31.2437 130.401 31.5824 130.483 31.8237C130.233 31.8586 129.873 31.8938 129.404 31.9285C128.422 32.0013 126.998 32.0694 125.192 32.1326C121.582 32.2589 116.466 32.3648 110.343 32.4501C98.0984 32.6207 81.8397 32.7088 65.58 32.7132C49.3202 32.7177 33.0617 32.6385 20.8173 32.4745C14.6946 32.3926 9.5784 32.2895 5.96845 32.1652C4.16251 32.103 2.73894 32.0357 1.75647 31.9635C1.2637 31.9273 0.891338 31.8905 0.640331 31.854C0.586904 31.8462 0.541457 31.8388 0.503303 31.8319C0.491115 31.7237 0.508537 31.5353 0.624832 31.193C0.822011 30.6127 1.26225 29.7111 2.10298 28.2353C3.77793 25.2951 6.96865 20.201 12.7349 11.0962L12.7349 11.0962ZM45.5386 17.583C45.5074 17.5998 45.4779 17.6162 45.45 17.6323C45.4364 17.6208 45.4238 17.6118 45.4133 17.6049C45.3794 17.5829 45.3543 17.5751 45.3503 17.5738C45.3494 17.5736 45.3491 17.5735 45.3494 17.5735C45.3513 17.5738 45.376 17.5794 45.4344 17.582C45.4647 17.5833 45.4994 17.5837 45.5386 17.583ZM45.5772 18.0822C45.5655 18.1175 45.5516 18.1426 45.543 18.1564C45.5288 18.1791 45.5183 18.1889 45.521 18.1862C45.5228 18.1844 45.531 18.1766 45.5485 18.1632C45.5768 18.1415 45.6192 18.1129 45.6786 18.0778C45.6432 18.0798 45.6094 18.0813 45.5772 18.0822ZM54.9531 56.3937L54.9532 56.3938C55.1559 56.4524 55.3926 56.6081 55.6692 57.0643C55.9514 57.5298 56.2453 58.2601 56.5701 59.3855C57.2183 61.6321 57.9511 65.3111 58.9976 71.2419C59.3088 73.0048 59.4199 74.0231 59.3531 74.5939C59.3207 74.871 59.2548 74.9538 59.2328 74.9748C59.2188 74.9881 59.1692 75.0292 58.9785 75.0292C58.6703 75.0292 58.5235 74.9926 58.3618 74.8521C58.1577 74.6749 57.898 74.2995 57.5292 73.4675C56.7983 71.8182 55.7597 68.6712 53.8168 62.6545L53.8167 62.6544C52.6649 59.0883 52.0521 57.013 51.8747 55.8954C51.831 55.6198 51.8178 55.4254 51.8237 55.2936C51.8237 55.2932 51.8237 55.2928 51.8238 55.2924C51.8434 55.2994 51.8648 55.3077 51.8882 55.3174L51.8884 55.3175C52.7341 55.6668 54.1071 56.149 54.9531 56.3937ZM70.1818 82.7211C70.2298 82.4394 70.2865 82.0358 70.3549 81.515C70.3624 81.458 70.3702 81.4005 70.3782 81.3425C70.3808 81.403 70.3834 81.4618 70.386 81.5191C70.4035 81.9128 70.4204 82.2318 70.4376 82.4794C70.4512 82.6765 70.4646 82.8196 70.4776 82.9158C70.4842 82.9644 70.4895 82.9919 70.4924 83.0042C70.4997 83.0352 70.4922 82.9798 70.4458 82.9109C70.4241 82.8786 70.3438 82.7673 70.1818 82.7211ZM61.2557 66.9425L61.2557 66.9425C60.9854 64.6082 60.7765 62.4276 60.6575 60.7962C60.598 59.9796 60.5614 59.306 60.5505 58.8215C60.5453 58.5894 60.5462 58.4082 60.5523 58.2787C60.6099 58.2625 60.6828 58.2447 60.7725 58.2261C61.0733 58.1638 61.5033 58.1035 62.0371 58.0503C63.1012 57.9442 64.5341 57.8706 66.0758 57.8565H66.0759L71.1638 57.8083L70.6427 62.912C70.0427 68.7842 69.698 71.812 69.206 73.4608C68.9644 74.2704 68.7066 74.674 68.4232 74.9183C68.1337 75.1679 67.7592 75.3046 67.145 75.4586C65.9628 75.7551 65.1027 75.896 64.4451 75.8367C63.8292 75.7812 63.3984 75.5516 63.0378 75.056C62.651 74.5246 62.3319 73.6677 62.0455 72.3224C61.7612 70.9874 61.5204 69.2307 61.2557 66.9425ZM60.5682 58.113C60.5682 58.1134 60.5676 58.1165 60.5662 58.1216C60.5674 58.1152 60.5681 58.1125 60.5682 58.113ZM51.2802 40.9531C51.9335 42.5693 52.9552 45.4641 53.8198 48.0617C54.2516 49.359 54.6426 50.5773 54.9273 51.5195C55.0698 51.9911 55.1847 52.3901 55.2645 52.6937C55.2871 52.7795 55.3065 52.8564 55.3228 52.9244C55.2811 52.9292 55.234 52.9336 55.1811 52.9374C54.8089 52.9637 54.2797 52.9481 53.7033 52.8954C53.13 52.843 52.5299 52.7557 52.0198 52.6454C51.4874 52.5304 51.122 52.4042 50.9647 52.3031C50.9463 52.2912 50.8864 52.2429 50.7793 52.1288C50.6788 52.0218 50.5561 51.8779 50.4132 51.6984C50.1276 51.3399 49.7759 50.8578 49.3809 50.2838C48.5918 49.137 47.6435 47.6429 46.7285 46.0808C45.8037 44.5019 44.8599 43.0016 44.0828 41.8546C43.6946 41.2817 43.3447 40.7921 43.0575 40.4232C42.9142 40.2391 42.7824 40.08 42.6664 39.9536C42.5599 39.8376 42.4365 39.7152 42.3114 39.6379C42.1739 39.5528 42.0023 39.3561 41.8623 39.0639C41.7257 38.7789 41.6462 38.4581 41.6462 38.179C41.6462 38.0505 41.6803 37.9747 41.7449 37.9077C41.8246 37.825 41.9852 37.7224 42.2998 37.6298C42.9364 37.4423 43.9978 37.352 45.6538 37.352C46.7721 37.352 47.5828 37.3562 48.2101 37.4189C48.8329 37.4811 49.2189 37.5968 49.5095 37.7836C49.7968 37.9682 50.0432 38.256 50.3198 38.766C50.6005 39.2836 50.8873 39.9809 51.2802 40.9531ZM83.8221 42.8439L85.7083 43.5604L83.4617 47.6847C82.318 49.7845 80.8962 51.4037 79.6011 52.2991C78.952 52.7479 78.3644 52.9943 77.8814 53.0544C77.4292 53.1107 77.0815 53.0052 76.8162 52.7544C76.813 52.7441 76.8086 52.7279 76.8041 52.7043C76.7888 52.6239 76.78 52.501 76.7853 52.3293C76.796 51.9875 76.8599 51.524 76.9718 50.9686C77.1949 49.8623 77.5943 48.4602 78.0653 47.0784C78.5363 45.6963 79.0724 44.3533 79.5637 43.3631C79.8106 42.8654 80.0374 42.4748 80.23 42.2158C80.3271 42.0853 80.4026 42.0058 80.4542 41.9635C80.4567 41.9615 80.459 41.9596 80.4612 41.9579C80.7318 41.9699 81.216 42.0571 81.8189 42.2113C82.454 42.3737 83.174 42.5981 83.8219 42.8438C83.8219 42.8439 83.822 42.8439 83.8221 42.8439ZM76.791 52.7299C76.7912 52.7301 76.7915 52.7304 76.7918 52.7307C76.7915 52.7305 76.7913 52.7302 76.7911 52.73L76.791 52.7299ZM80.4882 41.9392C80.4884 41.9392 80.4872 41.94 80.4847 41.9411C80.4869 41.9398 80.4881 41.9392 80.4882 41.9392Z" fill="white" stroke="black"/>
</svg>
